# AST/ASF file generated using VICON BodyLanguage
# -----------------------------------------------
:version 1.10
:name VICON
:units
  mass 1.0
  length 0.45
  angle deg
:documentation
   .ast/.asf automatically generated from VICON data using
   VICON BodyBuilder and BodyLanguage model FoxedUp or BRILLIANT.MOD
:root
   order TX TY TZ RX RY RZ
   axis XYZ
   position 0 0 0  
   orientation 0 0 0 
:bonedata
  begin
     id 1 
     name lhipjoint
     direction 0.596438 -0.722117 0.35044 
     length 2.43043 
     axis 0 0 0  XYZ
  end
  begin
     id 2 
     name lfemur
     direction 0.34202 -0.939693 0  
     length 7.0339  
     axis 0 0 20  XYZ
    dof rx ry rz
    limits (-160.0 20.0)
           (-70.0 70.0)
           (-60.0 70.0)
  end
  begin
     id 3 
     name ltibia
     direction 0.34202 -0.939693 0   
     length 7.56602   
     axis 0 0 20   XYZ
    dof rx
    limits (-10.0 170.0)
  end
  begin
     id 4 
     name lfoot
     direction 0.0985677 -0.270812 0.957572   
     length 1.85172   
     axis -90 7.62852e-016 20   XYZ
    dof rx rz
    limits (-45.0 90.0)
           (-70.0 20.0)
  end
  begin
     id 5 
     name ltoes
     direction 1.53534e-011 -4.21843e-011 1   
     length 0.929904   
     axis -90 7.62852e-016 20   XYZ
    dof rx
    limits (-90.0 20.0)
  end
  begin
     id 6 
     name rhipjoint
     direction -0.585088 -0.729594 0.354068   
     length 2.40552  
     axis 0 0 0  XYZ 
  end
  begin
     id 7 
     name rfemur
     direction -0.34202 -0.939693 0   
     length 7.12573   
     axis 0 0 -20   XYZ
    dof rx ry rz
    limits (-160.0 20.0)
           (-70.0 70.0)
           (-70.0 60.0)
  end
  begin
     id 8 
     name rtibia
     direction -0.34202 -0.939693 0   
     length 7.35777   
     axis 0 0 -20   XYZ
    dof rx
    limits (-10.0 170.0)
 end
 begin
     id 9 
     name rfoot
     direction -0.120907 -0.33219 0.935431   
     length 2.0994  
     axis -90 -7.62852e-016 -20   XYZ
    dof rx rz
    limits (-45.0 90.0)
           (-20.0 70.0)
  end
  begin
     id 10 
     name rtoes
     direction -1.53577e-011 -4.21787e-011 1   
     length 1.04244   
     axis -90 -7.62852e-016 -20   XYZ
    dof rx
    limits (-90.0 20.0)
  end
  begin
     id 11 
     name lowerback
     direction 0.00268363 0.993603 -0.112896   
     length 2.15839   
     axis 0 0 0   XYZ
    dof rx ry rz
    limits (-20.0 45.0)
           (-30.0 30.0)
           (-30.0 30.0)
  end
  begin
     id 12 
     name upperback
     direction 0.0272563 0.999411 -0.0208618   
     length 2.16443   
     axis 0 0 0   XYZ
    dof rx ry rz
    limits (-20.0 45.0)
           (-30.0 30.0)
           (-30.0 30.0)
  end
  begin
     id 13 
     name thorax
     direction 0.0254655 0.999174 0.0316806   
     length 2.19003   
     axis 0 0 0   XYZ
    dof rx ry rz
    limits (-20.0 45.0)
           (-30.0 30.0)
           (-30.0 30.0)
  end
  begin
     id 14 
     name lowerneck
     direction -0.0102178 0.988048 0.15381   
     length 1.61507   
     axis 0 0 0   XYZ
    dof rx ry rz
    limits (-20.0 45.0)
           (-30.0 30.0)
           (-30.0 30.0)
  end
  begin
     id 15 
     name upperneck
     direction -0.0061965 0.994088 -0.108398   
     length 1.64042   
     axis 0 0 0   XYZ
    dof rx ry rz
    limits (-20.0 45.0)
           (-30.0 30.0)
           (-30.0 30.0)
  end
  begin
     id 16
     name head
     direction -0.00151929 0.998591 -0.0530385  
     length 1.64343  
     axis 0 0 0   XYZ
    dof rx ry rz
    limits (-20.0 45.0)
           (-30.0 30.0)
           (-30.0 30.0)
  end
  begin
     id 17 
     name lclavicle
     direction 0.948974 0.284245 -0.136574  
     length 3.3483  
     axis 0 0 0   XYZ
    dof ry rz
    limits (-20.0 10.0)
           (0.0 20.0)
  end
  begin
     id 18 
     name lhumerus
     direction 1 -4.48961e-011 1.68576e-027   
     length 4.93485   
     axis -180 -30 -90   XYZ
    dof rx ry rz
    limits (-60.0 90.0)
           (-90.0 90.0)
           (-90.0 90.0)
  end
  begin
     id 19
     name lradius
     direction 1 -4.48965e-011 -2.46405e-027   
     length 3.41719   
     axis -180 -30 -90   XYZ
    dof rx
    limits (-10.0 170.0)
  end
  begin
     id 20
     name lwrist
     direction 1 -4.48968e-011 -8.00486e-028   
     length 1.7086   
     axis 3.27501e-015 90 90   XYZ
    dof ry
    limits (-180.0 0.0)
 end
  begin
     id 21 
     name lhand
     direction 1 -4.48977e-011 -1.60161e-027   
     length 0.6241   
     axis 1.02148e-015 90 90   XYZ
    dof rx rz
    limits (-90.0 90.0)
           (-45.0 45.0)
  end
  begin
     id 22 
     name lfingers
     direction 1 -4.49049e-011 -3.21275e-027   
     length 0.503166   
     axis 2.04295e-015 90 90   XYZ
    dof rx
    limits (0.0 90.0)
  end
  begin
     id 23
     name lthumb
     direction 0.707107 -6.34975e-011 0.707107   
     length 0.722448   
     axis -90 45 -1.62303e-014   XYZ
    dof rx rz
    limits (-45.0 45.0)
           (-45.0 45.0)
  end
  begin
     id 24 
     name rclavicle
     direction -0.904485 0.355099 -0.236246   
     length 3.18329  
     axis 0 0 0   XYZ 
    dof ry rz
    limits (-10.0 20.0)
           (-20.0 0.0)
  end
  begin
     id 25 
     name rhumerus
     direction -1 -4.48953e-011 1.32816e-027  
     length 5.22034   
     axis -180 30 90   XYZ
    dof rx ry rz
    limits (-90.0 60.0)
           (-90.0 90.0)
           (-90.0 90.0)
  end
  begin
     id 26 
     name rradius
     direction -1 -4.48965e-011 -3.93727e-027   
     length 3.41809   
     axis -180 30 90   XYZ
    dof rx
    limits (-10.0 170.0)
  end
  begin
     id 27 
     name rwrist
     direction -1 -4.48962e-011 -8.003e-028   
     length 1.70904   
     axis 3.27501e-015 -90 -90   XYZ
    dof ry
    limits (-180.0 0.0)
  end
  begin
     id 28
     name rhand
     direction -1 -4.49008e-011 -1.60365e-027   
     length 0.77534   
     axis 1.02148e-015 -90 -90   XYZ
    dof rx rz
    limits (-90.0 90.0)
           (-45.0 45.0)
  end
  begin
     id 29
     name rfingers
     direction -1 -4.49001e-011 -3.2064e-027   
     length 0.625099   
     axis 2.04295e-015 -90 -90   XYZ
    dof rx
    limits (0.0 90.0)
  end
  begin
     id 30
     name rthumb
     direction -0.707107 -6.34989e-011 0.707107   
     length 0.897521   
     axis -90 -45 1.62303e-014   XYZ
    dof rx rz
    limits (-45.0 45.0)
           (-45.0 45.0)
  end
:hierarchy
  begin
    root lhipjoint rhipjoint lowerback
    lhipjoint lfemur
    lfemur ltibia
    ltibia lfoot
    lfoot ltoes
    rhipjoint rfemur
    rfemur rtibia
    rtibia rfoot
    rfoot rtoes
    lowerback upperback
    upperback thorax
    thorax lowerneck lclavicle rclavicle
    lowerneck upperneck
    upperneck head
    lclavicle lhumerus
    lhumerus lradius
    lradius lwrist
    lwrist lhand lthumb
    lhand lfingers
    rclavicle rhumerus
    rhumerus rradius
    rradius rwrist
    rwrist rhand rthumb
    rhand rfingers
  end

#!OML:ASF \\sashay\E\Suitcase\Project 1\Capture day 1\Session 1\Male1.ASF
:FULLY-SPECIFIED
:DEGREES
499
root 0.670088 17.318 -12.2936 6.54967 4.99135 -6.08372
lowerback 7.89677 1.34778 3.39484
upperback 0.125421 2.28028 3.85551
thorax -4.33025 1.09997 1.83616
lowerneck -17.356 -1.13472 -2.02856
upperneck 22.8684 0.0561852 -4.00316
head 10.1848 -0.621945 -1.06594
rclavicle 1.75924e-014 2.8625e-014
rhumerus -63.3958 -40.547 -35.7596
rradius 9.77505
rwrist 17.1763
rhand -12.0473 11.0357
rfingers 7.12502
rthumb 14.0114 -18.4721
lclavicle 1.75924e-014 2.8625e-014
lhumerus -39.2618 13.8974 73.6541
lradius 32.6489
lwrist -1.07969
lhand -3.58132 39.6972
lfingers 7.12502
lthumb 22.156 68.4475
rfemur 9.3871 4.11829 34.1673
rtibia 3.18055e-015
rfoot -10.6628 -13.4784
rtoes 18.4435
lfemur -35.9018 -2.72231 -12.9409
ltibia 30.6474
lfoot -12.6968 -1.45101
ltoes 0.639307
500
root 0.671718 17.3075 -12.1648 6.7302 5.03186 -6.19863
lowerback 7.75764 1.28427 3.47981
upperback 0.151164 2.19262 3.84198
thorax -4.22062 1.05589 1.78763
lowerneck -17.7358 -1.06516 -1.581
upperneck 23.1362 0.125732 -4.3027
head 10.3534 -0.595227 -1.24521
rclavicle -9.0447e-015 1.51076e-014
rhumerus -63.4751 -40.3704 -35.8935
rradius 9.99134
rwrist 16.9595
rhand -11.8535 10.2061
rfingers 7.12502
rthumb 14.1982 -19.2887
lclavicle -9.0447e-015 1.51076e-014
lhumerus -39.3155 13.5512 73.7954
lradius 32.6015
lwrist -1.15196
lhand -3.51082 40.9125
lfingers 7.12502
lthumb 22.2236 69.6549
rfemur 9.63292 3.9005 34.3689
rtibia -1.90833e-014
rfoot -10.7602 -13.4837
rtoes 17.7152
lfemur -36.06 -2.96834 -12.7522
ltibia 28.7083
lfoot -12.8387 -0.98381
ltoes -0.25893
501
root 0.69184 17.3145 -12.0395 7.21012 4.59163 -5.93665
lowerback 7.72988 1.40447 3.41568
upperback -0.144942 2.35108 3.62739
thorax -4.50817 1.1289 1.58039
lowerneck -17.4166 -0.966571 -1.27584
upperneck 23.119 0.22677 -4.54175
head 10.2874 -0.546716 -1.36397
rclavicle 3.08116e-015 -1.66979e-014
rhumerus -63.8452 -40.0209 -35.7828
rradius 9.93089
rwrist 17.0471
rhand -11.9178 10.5785
rfingers 7.12502
rthumb 14.1362 -18.9206
lclavicle 3.08116e-015 -1.66979e-014
lhumerus -39.852 13.4977 73.513
lradius 32.2448
lwrist -1.93025
lhand -3.07563 39.9672
lfingers 7.12502
lthumb 22.6414 68.6592
rfemur 9.60426 4.17628 34.0419
rtibia 0
rfoot -10.7146 -13.6853
rtoes 16.5531
lfemur -36.5525 -3.31147 -12.8861
ltibia 27.3254
lfoot -13.4268 -0.185583
ltoes -0.411721
502
root 0.701172 17.2986 -11.9097 7.50395 4.46413 -6.06093
lowerback 7.26226 1.53549 3.50601
upperback -0.167762 2.50471 3.59185
thorax -4.26373 1.20552 1.48755
lowerneck -17.1963 -1.23832 -1.95781
upperneck 23.3452 -0.114266 -3.93118
head 10.3235 -0.691461 -1.08077
rclavicle -1.40143e-014 -3.57812e-015
rhumerus -64.2307 -40.124 -35.5396
rradius 9.90777
rwrist 16.9236
rhand -11.8646 10.2421
rfingers 7.12502
rthumb 14.1875 -19.2535
lclavicle -1.40143e-014 -3.57812e-015
lhumerus -40.0296 12.6076 73.9567
lradius 32.528
lwrist -2.0191
lhand -2.73593 40.5824
lfingers 7.12502
lthumb 22.9674 69.2342
rfemur 9.77499 4.15239 34.2009
rtibia 3.81667e-014
rfoot -11.0992 -13.7875
rtoes 16.3762
lfemur -37.0857 -3.51866 -12.7161
ltibia 25.9304
lfoot -13.5363 0.740236
ltoes -6.54258
503
root 0.709176 17.332 -11.7747 7.77271 4.07768 -5.95611
lowerback 6.96185 1.52618 3.30252
upperback -0.0470034 2.45188 3.61943
thorax -3.97817 1.18767 1.64467
lowerneck -17.4281 -1.02767 -2.30354
upperneck 23.0921 0.198431 -3.62218
head 10.2809 -0.540103 -0.86881
rclavicle 1.54058e-014 2.38542e-014
rhumerus -63.5364 -40.0192 -36.0522
rradius 9.95201
rwrist 16.6487
rhand -12.0186 9.55487
rfingers 7.12502
rthumb 14.039 -19.951
lclavicle 1.54058e-014 2.38542e-014
lhumerus -40.0825 13.6341 73.6178
lradius 31.8748
lwrist -3.53651
lhand -1.92053 40
lfingers 7.12502
lthumb 23.7496 68.5524
rfemur 10.0386 4.33878 34.0961
rtibia 0
rfoot -11.2761 -13.914
rtoes 17.0939
lfemur -37.2129 -3.48275 -12.8026
ltibia 24.7951
lfoot -14.314 1.34237
ltoes -3.86507
504
root 0.717236 17.31 -11.6438 8.00785 3.87567 -6.05723
lowerback 6.82539 1.67911 3.35329
upperback -0.185246 2.65821 3.59916
thorax -4.04334 1.28767 1.57658
lowerneck -17.2228 -0.934849 -1.75138
upperneck 23.1736 0.287846 -4.09037
head 10.2717 -0.50524 -1.11438
rclavicle -3.62782e-014 -3.26007e-014
rhumerus -63.8536 -40.0474 -35.7376
rradius 9.64061
rwrist 16.6871
rhand -12.1835 10.1794
rfingers 7.12502
rthumb 13.8802 -19.3374
lclavicle -3.62782e-014 -3.26007e-014
lhumerus -40.6108 13.1101 73.8481
lradius 32.1315
lwrist -4.24898
lhand -1.58796 39.598
lfingers 7.12502
lthumb 24.0685 68.1086
rfemur 10.2536 4.36659 34.2521
rtibia -3.18055e-015
rfoot -11.1699 -14.0677
rtoes 15.2812
lfemur -37.7164 -3.49368 -12.7287
ltibia 23.8876
lfoot -14.665 2.24326
ltoes -7.67002
505
root 0.730627 17.286 -11.5137 8.2053 3.82171 -6.15222
lowerback 6.78397 1.61858 3.59959
upperback -0.304005 2.59602 3.4862
thorax -4.12717 1.24867 1.32788
lowerneck -17.2923 -0.878191 -1.57923
upperneck 23.4692 0.362811 -4.20487
head 10.3932 -0.475084 -1.17842
rclavicle 2.97183e-014 1.27222e-014
rhumerus -63.8629 -39.8673 -35.9637
rradius 9.70576
rwrist 16.648
rhand -12.0031 10.0462
rfingers 7.12502
rthumb 14.054 -19.4586
lclavicle 2.97183e-014 1.27222e-014
lhumerus -40.9837 13.0666 73.6393
lradius 32.0835
lwrist -4.80021
lhand -0.803935 40.9523
lfingers 7.12502
lthumb 24.8201 69.3614
rfemur 10.53 4.24739 34.3689
rtibia -3.81667e-014
rfoot -11.4882 -14.0345
rtoes 15.1852
lfemur -38.2737 -3.54337 -12.7175
ltibia 23.4966
lfoot -15.4834 2.80507
ltoes -2.11622
506
root 0.737442 17.2731 -11.3822 8.4328 3.83255 -6.13599
lowerback 6.60771 1.55745 3.39139
upperback -0.300633 2.49267 3.60752
thorax -4.03878 1.20463 1.58538
lowerneck -17.251 -0.843878 -1.7922
upperneck 23.2381 0.452243 -4.17292
head 10.3039 -0.445111 -1.11541
rclavicle -1.19271e-014 -4.45278e-014
rhumerus -63.445 -39.711 -36.1138
rradius 9.42824
rwrist 16.3805
rhand -12.0988 10.6533
rfingers 7.12502
rthumb 13.9618 -18.8579
lclavicle -1.19271e-014 -4.45278e-014
lhumerus -41.1984 12.8682 74.0963
lradius 32.0951
lwrist -4.79392
lhand -1.01782 41.082
lfingers 7.12502
lthumb 24.6151 69.5192
rfemur 10.7764 4.05377 34.4091
rtibia -3.18055e-014
rfoot -11.722 -14.1511
rtoes 16.0059
lfemur -38.6224 -3.86378 -12.6182
ltibia 23.214
lfoot -16.5207 3.73383
ltoes -4.93961
507
root 0.757108 17.2824 -11.2586 8.86078 3.5259 -6.09199
lowerback 6.3807 1.75753 3.56106
upperback -0.43131 2.75653 3.39937
thorax -4.02947 1.329 1.25413
lowerneck -17.0895 -0.824269 -1.55301
upperneck 23.1934 0.37494 -4.06259
head 10.2534 -0.443329 -1.12497
rclavicle 2.41523e-014 6.75868e-015
rhumerus -63.9663 -39.9556 -35.8913
rradius 9.70093
rwrist 16.3221
rhand -11.7793 9.81138
rfingers 7.12502
rthumb 14.2697 -19.6783
lclavicle 2.41523e-014 6.75868e-015
lhumerus -41.2814 12.6966 73.9768
lradius 31.9036
lwrist -6.07597
lhand 0.394733 41.0296
lfingers 7.12502
lthumb 25.9684 69.2755
rfemur 10.734 4.22028 34.2658
rtibia 0
rfoot -11.4592 -14.2142
rtoes 14.7893
lfemur -39.0445 -3.33966 -13.0243
ltibia 23.0962
lfoot -16.6079 4.25725
ltoes 0.790105
508
root 0.761721 17.2567 -11.1222 8.8484 3.95145 -6.44233
lowerback 6.26416 1.52521 4.00246
upperback -0.393788 2.47293 3.45042
thorax -3.90963 1.18127 1.09183
lowerneck -17.3027 -0.594285 -1.33667
upperneck 23.2955 0.706614 -4.29058
head 10.338 -0.303472 -1.1997
rclavicle -2.48481e-014 -3.10104e-014
rhumerus -63.4636 -39.99 -36.316
rradius 9.29883
rwrist 16.2355
rhand -12.1596 10.1196
rfingers 7.12502
rthumb 13.9032 -19.3956
lclavicle -2.48481e-014 -3.10104e-014
lhumerus -41.5123 12.8742 73.9202
lradius 31.8327
lwrist -6.59352
lhand 0.134364 40.8352
lfingers 7.12502
lthumb 25.7191 69.1175
rfemur 11.2391 3.62892 34.7493
rtibia 1.27222e-014
rfoot -11.4759 -14.1063
rtoes 14.2376
lfemur -39.3527 -2.85395 -13.1518
ltibia 23.3709
lfoot -16.6426 3.93572
ltoes -6.62963
509
root 0.7749 17.233 -10.9999 8.86776 3.6923 -6.51905
lowerback 6.54944 1.64847 3.87047
upperback -0.551659 2.66067 3.58302
thorax -4.24602 1.2732 1.2749
lowerneck -17.0158 -0.736102 -1.34916
upperneck 23.2855 0.600761 -4.666
head 10.2805 -0.394324 -1.34334
rclavicle -1.08338e-014 -3.93594e-014
rhumerus -63.6871 -39.7166 -35.9338
rradius 9.30125
rwrist 16.2981
rhand -12.0936 10.5451
rfingers 7.12502
rthumb 13.9668 -18.9657
lclavicle -1.08338e-014 -3.93594e-014
lhumerus -42.1701 12.5223 74.38
lradius 32.1795
lwrist -6.90706
lhand 0.714108 40.8729
lfingers 7.12502
lthumb 26.2742 69.0735
rfemur 11.6367 3.66778 34.7577
rtibia 0
rfoot -11.3547 -14.0163
rtoes 14.8998
lfemur -39.5054 -2.07578 -13.7075
ltibia 23.5952
lfoot -15.6589 4.53049
ltoes -7.78369
510
root 0.795504 17.2239 -10.8637 8.91498 3.76373 -6.41117
lowerback 6.45412 1.64908 4.05842
upperback -0.443946 2.65376 3.36364
thorax -4.06066 1.266 0.947414
lowerneck -17.1553 -0.901061 -1.25711
upperneck 23.32 0.306339 -4.50802
head 10.3116 -0.50462 -1.3448
rclavicle -1.09332e-015 1.15295e-014
rhumerus -63.8634 -39.9539 -35.9638
rradius 9.4899
rwrist 16.1483
rhand -11.9126 10.1197
rfingers 7.12502
rthumb 14.1412 -19.379
lclavicle -1.09332e-015 1.15295e-014
lhumerus -41.8242 12.4917 74.3176
lradius 31.7324
lwrist -7.2537
lhand 0.892696 40.979
lfingers 7.12502
lthumb 26.4451 69.1541
rfemur 12.1253 3.36889 34.6015
rtibia 6.36111e-015
rfoot -11.2432 -13.7617
rtoes 13.0107
lfemur -39.35 -2.49465 -13.8145
ltibia 24.0359
lfoot -15.5065 4.64443
ltoes -1.33261
511
root 0.797678 17.2037 -10.7408 8.9118 3.58725 -6.43831
lowerback 6.51095 1.66333 3.80561
upperback -0.339837 2.65533 3.46005
thorax -4.00016 1.27487 1.18768
lowerneck -17.8252 -0.863145 -2.30334
upperneck 23.8904 0.501208 -3.69998
head 10.6523 -0.429003 -0.866567
rclavicle 1.76918e-014 4.05521e-014
rhumerus -63.4712 -39.9766 -36.1806
rradius 9.38672
rwrist 16.3978
rhand -11.969 10.0757
rfingers 7.12502
rthumb 14.0869 -19.4268
lclavicle 1.76918e-014 4.05521e-014
lhumerus -41.7722 13.0393 74.4257
lradius 31.4292
lwrist -8.29075
lhand 1.04975 40.3072
lfingers 7.12502
lthumb 26.5955 68.4596
rfemur 12.5709 3.31447 34.5793
rtibia -1.27222e-014
rfoot -11.1801 -13.4721
rtoes 13.6388
lfemur -39.1358 -1.96275 -14.2287
ltibia 23.9965
lfoot -15.0523 4.61894
ltoes 6.45053
512
root 0.81329 17.1856 -10.5861 8.66306 3.38166 -6.32562
lowerback 6.46574 1.80092 3.5457
upperback -0.15384 2.80662 3.47902
thorax -3.79353 1.35914 1.34169
lowerneck -17.48 -0.664973 -0.74321
upperneck 23.3186 0.643333 -5.0589
head 10.3829 -0.374214 -1.58397
rclavicle -1.12313e-014 3.53837e-014
rhumerus -63.7064 -40.0477 -35.8813
rradius 9.67207
rwrist 16.0627
rhand -11.9181 10.3144
rfingers 7.12502
rthumb 14.1359 -19.1847
lclavicle -1.12313e-014 3.53837e-014
lhumerus -41.6522 13.1105 74.7234
lradius 31.1586
lwrist -8.70841
lhand 1.19762 41.5312
lfingers 7.12502
lthumb 26.737 69.662
rfemur 13.4794 3.20752 34.3874
rtibia 5.08889e-014
rfoot -11.2706 -13.382
rtoes 12.0916
lfemur -38.5643 -1.78735 -14.716
ltibia 24.337
lfoot -14.6322 4.36181
ltoes 1.08489
513
root 0.821606 17.1478 -10.4435 8.39693 3.20097 -6.15485
lowerback 6.96572 1.87406 3.32905
upperback -0.346877 2.91965 3.31485
thorax -4.27763 1.41077 1.26152
lowerneck -16.7765 -0.659404 -0.86932
upperneck 23.1877 0.56418 -4.67951
head 10.1963 -0.365325 -1.43019
rclavicle -1.08338e-014 -1.07344e-014
rhumerus -64.3189 -39.6759 -35.5636
rradius 9.77013
rwrist 15.8861
rhand -11.564 10.2162
rfingers 7.12502
rthumb 14.4771 -19.2587
lclavicle -1.08338e-014 -1.07344e-014
lhumerus -42.4571 12.3546 74.7679
lradius 31.4038
lwrist -8.75283
lhand 1.81312 41.4342
lfingers 7.12502
lthumb 27.3259 69.4736
rfemur 14.3447 3.06312 34.1665
rtibia -1.59028e-014
rfoot -10.7171 -12.977
rtoes 10.7365
lfemur -38.1814 -1.47493 -15.3545
ltibia 24.3418
lfoot -13.885 4.36445
ltoes -4.2319
